<svg width="319" height="272" viewBox="0 0 319 272" fill="none" xmlns="http://www.w3.org/2000/svg">
  <circle cx="64.5" cy="209.5" r="22.5" fill="white" />
  <circle cx="253.5" cy="209.5" r="22.5" fill="white" />
  <path fill-rule="evenodd" clip-rule="evenodd"
    d="M0 32C0 14.3269 14.3269 0 32 0H287C304.673 0 319 14.3269 319 32V167C319 184.673 304.673 199 287 199H283.406C279.207 186.224 267.181 177 253 177C238.819 177 226.793 186.224 222.594 199H95.4065C91.2073 186.224 79.1809 177 65 177C50.8191 177 38.7927 186.224 34.5935 199H32C14.3269 199 0 184.673 0 167V32ZM176.706 129.796C174.651 129.796 172.853 129.057 171.312 127.58C169.771 126.104 169 124.209 169 121.898V40.4111C169 36.1731 170.509 32.545 173.527 29.527C176.545 26.509 180.173 25 184.411 25H269.172C273.411 25 277.039 26.509 280.057 29.527C283.075 32.545 284.584 36.1731 284.584 40.4111V94.3501C284.584 98.5882 283.075 102.216 280.057 105.234C277.039 108.252 273.411 109.761 269.172 109.761H199.822L182.1 127.484C181.329 128.255 180.494 128.833 179.595 129.218C178.696 129.603 177.733 129.796 176.706 129.796ZM146.272 127.58C144.731 129.057 142.933 129.796 140.878 129.796C139.851 129.796 138.887 129.603 137.988 129.218C137.089 128.833 136.255 128.255 135.484 127.484L117.761 109.761H48.4111C44.1731 109.761 40.545 108.252 37.527 105.234C34.509 102.216 33 98.5882 33 94.3501V40.4111C33 36.1731 34.509 32.545 37.527 29.527C40.545 26.509 44.1731 25 48.4111 25H133.172C137.41 25 141.039 26.509 144.057 29.527C147.075 32.545 148.584 36.1731 148.584 40.4111V121.898C148.584 124.209 147.813 126.104 146.272 127.58Z"
    fill="white" />
  <path d="M17 262H302" stroke="white" stroke-width="20" stroke-linecap="round" />
</svg>