<svg width="415" height="415" viewBox="0 0 415 415" fill="none" xmlns="http://www.w3.org/2000/svg">
  <path
    d="M172.917 293.958C180.122 293.958 186.246 291.437 191.289 286.393C196.332 281.35 198.854 275.226 198.854 268.021C198.854 260.816 196.332 254.692 191.289 249.648C186.246 244.605 180.122 242.083 172.917 242.083C165.712 242.083 159.588 244.605 154.544 249.648C149.501 254.692 146.979 260.816 146.979 268.021C146.979 275.226 149.501 281.35 154.544 286.393C159.588 291.437 165.712 293.958 172.917 293.958ZM86.026 380.417C82.8559 380.417 80.1901 379.552 78.0286 377.823C75.8672 376.094 74.3541 373.932 73.4896 371.339C72.625 368.745 72.625 366.079 73.4896 363.341C74.3541 360.603 76.0833 358.37 78.6771 356.641L95.1041 345.833C78.3889 345.833 64.1232 339.925 52.3073 328.109C40.4913 316.293 34.5833 302.028 34.5833 285.312V121.042C34.5833 100.292 44.1658 84.441 63.3307 73.4896C82.4956 62.5382 113.549 55.7656 156.49 53.1719C164.847 52.5955 171.332 55.8377 175.943 62.8984C180.554 69.9592 181.274 77.6684 178.104 86.026C176.375 91.7899 175.078 97.77 174.214 103.966C173.349 110.162 172.917 116.286 172.917 122.339C172.917 126.661 171.548 130.408 168.81 133.578C166.072 136.748 162.542 138.333 158.219 138.333H69.1666V190.208H181.562C185.597 190.208 189.488 191.145 193.234 193.018C196.981 194.891 200.151 197.413 202.745 200.583C207.644 206.347 212.976 211.463 218.74 215.93C224.503 220.397 230.7 224.359 237.328 227.818C246.55 232.717 256.133 236.391 266.076 238.841C276.018 241.291 286.177 242.372 296.552 242.083C300.587 242.083 304.045 243.308 306.927 245.758C309.809 248.207 311.25 251.45 311.25 255.484V285.312C311.25 302.028 305.342 316.293 293.526 328.109C281.71 339.925 267.444 345.833 250.729 345.833L267.156 356.641C269.75 358.37 271.479 360.603 272.344 363.341C273.208 366.079 273.208 368.745 272.344 371.339C271.479 373.932 269.966 376.094 267.805 377.823C265.643 379.552 262.977 380.417 259.807 380.417H86.026Z"
    fill="white" stroke="black" stroke-width="10" />
  <path
    d="M354.456 211.573C353.429 211.573 352.466 211.38 351.567 210.995C350.668 210.61 349.833 210.032 349.062 209.261L331.34 191.538H254.284C250.046 191.538 246.418 190.029 243.4 187.011C240.382 183.993 238.873 180.365 238.873 176.127V168.422H323.634C327.872 168.422 331.5 166.913 334.518 163.895C337.536 160.877 339.045 157.249 339.045 153.011V99.0716H346.751C350.989 99.0716 354.617 100.581 357.635 103.599C360.653 106.617 362.162 110.245 362.162 114.483V203.675C362.162 205.986 361.391 207.881 359.85 209.358C358.309 210.834 356.511 211.573 354.456 211.573ZM215.756 173.045C213.701 173.045 211.903 172.307 210.362 170.83C208.821 169.353 208.05 167.459 208.05 165.147V83.6605C208.05 79.4224 209.559 75.7944 212.577 72.7764C215.595 69.7583 219.223 68.2493 223.462 68.2493H308.223C312.461 68.2493 316.089 69.7583 319.107 72.7764C322.125 75.7944 323.634 79.4224 323.634 83.6605V137.599C323.634 141.838 322.125 145.466 319.107 148.484C316.089 151.502 312.461 153.011 308.223 153.011H238.873L221.15 170.733C220.379 171.504 219.545 172.082 218.646 172.467C217.747 172.852 216.783 173.045 215.756 173.045Z"
    fill="white" stroke="black" stroke-width="10" />
</svg>